<svg xmlns="http://www.w3.org/2000/svg" width="419.085" height="609.272" viewBox="0 0 419.085 609.272">
  <g id="sand_og" data-name="sand og" transform="translate(28.644 44.672)">
    <g id="Group_136" data-name="Group 136">
      <path id="Path_23" data-name="Path 23" d="M794.356-763.487c31.856,22.515,75.084-.013,120.388,46.3s-13.556-13.34-50.691-18.051S794.356-763.487,794.356-763.487Z" transform="translate(-823 796)" fill="#d8f1b3"/>
      <path id="Union_1" data-name="Union 1" d="M-712.087,824.562h-.251c-14.112-6.84-37.756-.655-60.294-14.995s14.457,3.565,35.582,3.934a75.376,75.376,0,0,1,20.742,3.414,34.335,34.335,0,0,1,5.024,1.876,26.148,26.148,0,0,1,2.632,1.33,52.582,52.582,0,0,1,6.315,4.116c16.874,12.715,39.133,31.1,36.842,33.052C-681.816,844.494-698.361,832.1-712.087,824.562Z" transform="translate(767.191 -768.067)" fill="#e9ffc8"/>
    </g>
    <g id="Group_135" data-name="Group 135" transform="translate(-13 8)">
      <path id="Path_25" data-name="Path 25" d="M34.5,9.881C23.422,7.531,17.21,13.905,5.594,6.8s5.44-2.333,16.212-2.333S35.886,9.1,34.5,9.881Z" transform="translate(18.784 67.711) rotate(13)" fill="#d8f1b3"/>
      <path id="Path_29" data-name="Path 29" d="M33.652,10.541C22.573,8.19,16.868,14.058,5.594,6.8c-2.645-2.93,5.147.246,15.919.246S35.037,9.755,33.652,10.541Z" transform="translate(18.784 64.711) rotate(13)" fill="#e9ffc8"/>
    </g>
    <g id="Group_133" data-name="Group 133" transform="translate(15 -168)">
      <path id="Path_26" data-name="Path 26" d="M0,0C41.646,22.044,101.981-.132,161.193,45.245s-35.884-23.8-90.84-23.736S0,0,0,0Z" transform="matrix(0.995, 0.105, -0.105, 0.995, 41.953, 161.316)" fill="#d8f1b3"/>
      <path id="Union_2" data-name="Union 2" d="M109.933,32.755C89.571,24.581,36.143,24.227,7.055,6c-30.007-18.8,43.681,12.568,71.807,13.052A101.756,101.756,0,0,1,106.5,23.532a46.132,46.132,0,0,1,6.616,2.43,35.031,35.031,0,0,1,3.6,1.789,70.179,70.179,0,0,1,8.371,5.379C147.544,49.8,173.619,73.737,170.569,76.29,148.267,59.074,127.44,42.5,109.933,32.755Z" transform="translate(39.909 160.905)" fill="#e9ffc8"/>
    </g>
    <g id="Group_134" data-name="Group 134" transform="translate(90 -84)">
      <path id="Path_27" data-name="Path 27" d="M67.672,19.382c-19.51-.422-37.762,0-60.547-13.94s4.842.51,25.971.51S67.074,16.915,67.672,19.382Z" transform="matrix(0.996, 0.087, -0.087, 0.996, 31.329, 137.601)" fill="#d8f1b3"/>
      <path id="Path_32" data-name="Path 32" d="M62.5,19.567C46.717,17.257,30.484,15.4,6.849,7.216S11.967,5.952,33.1,5.952,65.779,20.265,62.5,19.567Z" transform="matrix(0.996, 0.087, -0.087, 0.996, 32.329, 133.601)" fill="#e9ffc8"/>
    </g>
    <g id="Group_137" data-name="Group 137" transform="matrix(-0.819, -0.574, 0.574, -0.819, 252.883, 70.541)">
      <path id="Path_26-2" data-name="Path 26" d="M.088,27.4c30.169-9.829,82.018,1.38,124.921-17.1C126.544,9.644,128.275,8.848,130,8c44.257-21.767-49.279,7.957-91.49,6.445S.088,27.4.088,27.4Z" transform="matrix(0.995, -0.105, 0.105, 0.995, 0, 14.803)" fill="#d8f1b3"/>
      <path id="Union_2-2" data-name="Union 2" d="M6.007,33.574C27.568,20.294,65.947,26.859,83.961,22.98,98.523,18.315,116.313,9.346,135.468,0c2.422,1.282-18.287,13.3-36.13,21.666q-1.977.927-3.845,1.664c-.033,3.159-16.282,9.206-32.792,9.323-15.155.107-46.767,7.222-58.119,7.222C-.8,39.875-1.628,38.276,6.007,33.574Z" transform="translate(2.619 3.949)" fill="#e9ffc8"/>
    </g>
    <g id="Group_138" data-name="Group 138" transform="translate(-27 -74)">
      <path id="Path_25-2" data-name="Path 25" d="M49.661,8.635C32.889,5.766,24.447,11.408,6.281,4.023S14.08,2.144,30.1,2.779,51.623,7.976,49.661,8.635Z" transform="translate(19.985 81.073) rotate(13)" fill="#d8f1b3"/>
      <path id="Path_29-2" data-name="Path 29" d="M46.221,13.476c-22.228-8.285-31.385-1.754-48-7.782C-5.525,3.017,9.824,1.437,23.1,1.9S48.478,12.49,46.221,13.476Z" transform="translate(24.142 76.265) rotate(13)" fill="#e9ffc8"/>
    </g>
    <g id="Group_142" data-name="Group 142" transform="translate(-5.329 389.513)">
      <path id="Path_27-2" data-name="Path 27" d="M69.1,20.008c-19.51-.422-37.762,0-60.547-13.94s4.842.51,25.971.51S68.5,17.542,69.1,20.008Z" transform="matrix(-0.996, -0.087, 0.087, -0.996, 68.837, 25.954)" fill="#e9ffc8"/>
      <path id="Path_32-2" data-name="Path 32" d="M67.215,19.835A287.3,287.3,0,0,1,8.87,4.282c-23.635-8.95,4.966,2.966,26.095,2.966S70.49,20.6,67.215,19.835Z" transform="matrix(-0.996, -0.087, 0.087, -0.996, 68.623, 27.78)" fill="#d8f1b3"/>
    </g>
    <g id="Group_145" data-name="Group 145" transform="translate(249.434 513.576)">
      <path id="Path_25-3" data-name="Path 25" d="M49.582,8.424C32.809,5.555,24.368,11.2,6.2,3.812S14,1.933,30.022,2.568,51.544,7.765,49.582,8.424Z" transform="translate(49.02 19.447) rotate(-167)" fill="#e9ffc8"/>
      <path id="Path_29-3" data-name="Path 29" d="M48.576,11.656C26.347,3.371,17.191,9.9.572,3.874-3.17,1.2,12.179-.383,25.458.08S50.833,10.669,48.576,11.656Z" transform="translate(47.597 23.234) rotate(-167)" fill="#d8f1b3"/>
    </g>
    <g id="Group_139" data-name="Group 139" transform="translate(209.196 391.349)">
      <path id="Path_23-2" data-name="Path 23" d="M930.273-699.029c-31.856-22.515-75.084.013-120.388-46.3s19.295,10.04,56.43,14.751S930.273-699.029,930.273-699.029Z" transform="translate(-794.356 763.487)" fill="#e9ffc8"/>
      <path id="Union_1-2" data-name="Union 1" d="M74.672,20.552h-.277C58.8,13.711,32.675,19.9,7.772,5.556S23.747,9.121,47.089,9.49A91.536,91.536,0,0,1,66.154,11.9,85.58,85.58,0,0,1,94.167,23.954c18.644,12.716,34.519,27.376,31.988,29.323C108.12,40.485,89.838,28.092,74.672,20.552Z" transform="translate(131.748 61.029) rotate(180)" fill="#d8f1b3"/>
    </g>
    <g id="Group_141" data-name="Group 141" transform="translate(101.969 416.099)">
      <path id="Path_26-3" data-name="Path 26" d="M0,0C41.646,22.044,101.981-.132,161.193,45.245S113.33,27.061,58.374,27.123,0,0,0,0Z" transform="matrix(-0.995, -0.105, 0.105, -0.995, 177.547, 79.905)" fill="#e9ffc8"/>
      <path id="Union_2-3" data-name="Union 2" d="M109.932,32.755C89.571,24.58,36.142,24.226,7.055,6c-30.007-18.8,43.681,12.568,71.806,13.052A101.756,101.756,0,0,1,106.5,23.531a46.132,46.132,0,0,1,6.616,2.43,35.031,35.031,0,0,1,3.6,1.789,70.179,70.179,0,0,1,8.371,5.379c22.466,16.674,48.541,40.608,45.49,43.161C148.267,59.074,127.439,42.5,109.932,32.755Z" transform="translate(179.591 80.316) rotate(180)" fill="#d8f1b3"/>
    </g>
    <g id="Group_143" data-name="Group 143" transform="translate(80.671 378.513)">
      <path id="Path_27-3" data-name="Path 27" d="M69.1,20.008c-19.51-.422-37.762,0-60.547-13.94s8.053-.552,25.986,1.241S68.5,17.542,69.1,20.008Z" transform="matrix(-0.996, -0.087, 0.087, -0.996, 68.837, 25.954)" fill="#e9ffc8"/>
      <path id="Path_32-3" data-name="Path 32" d="M64.752,17.557C48.911,15.072,32.62,13.08,8.9,4.272s3.07-.362,23.744,2.993S68.039,18.307,64.752,17.557Z" transform="matrix(-0.996, -0.087, 0.087, -0.996, 68.222, 26.468)" fill="#d8f1b3"/>
    </g>
    <g id="Group_144" data-name="Group 144" transform="matrix(0.819, 0.574, -0.574, 0.819, 113.586, 450.778)">
      <path id="Path_26-4" data-name="Path 26" d="M.088,27.4c30.169-9.829,82.018,1.38,124.921-17.1C126.544,9.644,128.275,8.848,130,8c44.257-21.767-49.279,7.957-91.49,6.445S.088,27.4.088,27.4Z" transform="matrix(0.995, -0.105, 0.105, 0.995, 0, 14.803)" fill="#e9ffc8"/>
      <path id="Union_2-4" data-name="Union 2" d="M5.6,35.284c23.832-9.438,68.922-11.029,85.462-14.866l.372-.085C104.44,15.34,119.479,7.8,135.468,0c2.422,1.282-18.287,13.3-36.13,21.666A66.455,66.455,0,0,1,93.181,24.2a58.391,58.391,0,0,1-20.356,3.618C55.408,28,9.795,38.177,1.842,38.176-.4,38.175.353,37.363,5.6,35.284Z" transform="translate(2.619 3.949)" fill="#d8f1b3"/>
    </g>
    <g id="Group_140" data-name="Group 140" transform="translate(244.429 374.765)">
      <path id="Path_25-4" data-name="Path 25" d="M32.8,6.988C21.721,4.638,15.509,11.012,3.893,3.9S9.333,1.57,20.105,1.57,34.185,6.2,32.8,6.988Z" transform="translate(32.25 14.642) rotate(-167)" fill="#e9ffc8"/>
      <path id="Path_29-4" data-name="Path 29" d="M28.577,4.986C17.5,2.635,11.794,8.5.519,1.241c-2.645-2.93,5.147.246,15.919.246S29.963,4.2,28.577,4.986Z" transform="translate(29.562 14.29) rotate(-167)" fill="#d8f1b3"/>
    </g>
    <g id="Group_146" data-name="Group 146" transform="translate(250.156 62.057) rotate(1)">
      <path id="Path_27-4" data-name="Path 27" d="M140.365,34.332c-39.632-.725-76.708.006-122.992-23.92s31.2,2.549,51.678,6.263S139.15,30.1,140.365,34.332Z" transform="matrix(-0.996, -0.087, 0.087, -0.996, 140.381, 46.435)" fill="#e9ffc8"/>
      <path id="Path_32-4" data-name="Path 32" d="M138.286,35.468c-32.068-4.02-72.257-14.263-120.268-28.51s41.588,5.568,74.806,13.154S144.939,36.681,138.286,35.468Z" transform="matrix(-0.996, -0.087, 0.087, -0.996, 140.098, 48.422)" fill="#d8f1b3"/>
    </g>
    <g id="Group_147" data-name="Group 147" transform="translate(277.434 -0.424)">
      <path id="Path_29-5" data-name="Path 29" d="M48.576,11.656C26.347,3.371,17.191,9.9.572,3.874-3.17,1.2,12.179-.383,25.458.08S50.833,10.669,48.576,11.656Z" transform="translate(47.597 23.234) rotate(-167)" fill="#d8f1b3"/>
      <path id="Path_25-5" data-name="Path 25" d="M49.582,8.424C32.809,5.555,24.368,11.2,6.2,3.812S14,1.933,30.022,2.568,51.544,7.765,49.582,8.424Z" transform="translate(49.02 19.447) rotate(-167)" fill="#e9ffc8"/>
    </g>
    <g id="Group_148" data-name="Group 148" transform="translate(8 461)">
      <path id="Path_23-3" data-name="Path 23" d="M794.356-763.487c31.856,22.515,75.084-.013,120.388,46.3s-13.556-13.34-50.691-18.051S794.356-763.487,794.356-763.487Z" transform="translate(-823 796)" fill="#d8f1b3"/>
      <path id="Union_1-3" data-name="Union 1" d="M-712.087,824.562h-.251c-14.112-6.84-37.756-.655-60.294-14.995s14.457,3.565,35.582,3.934a75.376,75.376,0,0,1,20.742,3.414,34.335,34.335,0,0,1,5.024,1.876,26.148,26.148,0,0,1,2.632,1.33,52.582,52.582,0,0,1,6.315,4.116c16.874,12.715,39.133,31.1,36.842,33.052C-681.816,844.494-698.361,832.1-712.087,824.562Z" transform="translate(767.191 -768.067)" fill="#e9ffc8"/>
    </g>
    <g id="Group_149" data-name="Group 149" transform="translate(-4 367)">
      <path id="Path_25-6" data-name="Path 25" d="M49.661,8.635C32.889,5.766,24.447,11.408,6.281,4.023S14.08,2.144,30.1,2.779,51.623,7.976,49.661,8.635Z" transform="translate(19.985 81.073) rotate(13)" fill="#d8f1b3"/>
      <path id="Path_29-6" data-name="Path 29" d="M46.221,13.476c-22.228-8.285-31.385-1.754-48-7.782C-5.525,3.017,9.824,1.437,23.1,1.9S48.478,12.49,46.221,13.476Z" transform="translate(24.142 76.265) rotate(13)" fill="#e9ffc8"/>
    </g>
    <g id="Group_150" data-name="Group 150" transform="translate(9.671 117.513)">
      <path id="Path_27-5" data-name="Path 27" d="M69.1,20.008c-19.51-.422-37.762,0-60.547-13.94s4.842.51,25.971.51S68.5,17.542,69.1,20.008Z" transform="matrix(-0.996, -0.087, 0.087, -0.996, 68.837, 25.954)" fill="#e9ffc8"/>
      <path id="Path_32-5" data-name="Path 32" d="M67.215,19.835A287.3,287.3,0,0,1,8.87,4.282c-23.635-8.95,4.966,2.966,26.095,2.966S70.49,20.6,67.215,19.835Z" transform="matrix(-0.996, -0.087, 0.087, -0.996, 68.623, 27.78)" fill="#d8f1b3"/>
    </g>
    <g id="Group_151" data-name="Group 151" transform="translate(274.434 173.576)">
      <path id="Path_25-7" data-name="Path 25" d="M49.582,8.424C32.809,5.555,24.368,11.2,6.2,3.812S14,1.933,30.022,2.568,51.544,7.765,49.582,8.424Z" transform="translate(49.02 19.447) rotate(-167)" fill="#e9ffc8"/>
      <path id="Path_29-7" data-name="Path 29" d="M48.576,11.656C26.347,3.371,17.191,9.9.572,3.874-3.17,1.2,12.179-.383,25.458.08S50.833,10.669,48.576,11.656Z" transform="translate(47.597 23.234) rotate(-167)" fill="#d8f1b3"/>
    </g>
    <g id="Group_152" data-name="Group 152" transform="translate(160.196 93.349)">
      <path id="Path_23-4" data-name="Path 23" d="M930.273-699.029c-31.856-22.515-75.084.013-120.388-46.3s19.295,10.04,56.43,14.751S930.273-699.029,930.273-699.029Z" transform="translate(-794.356 763.487)" fill="#e9ffc8"/>
      <path id="Union_1-4" data-name="Union 1" d="M74.672,20.552h-.277C58.8,13.711,32.675,19.9,7.772,5.556S23.747,9.121,47.089,9.49A91.536,91.536,0,0,1,66.154,11.9,85.58,85.58,0,0,1,94.167,23.954c18.644,12.716,34.519,27.376,31.988,29.323C108.12,40.485,89.838,28.092,74.672,20.552Z" transform="translate(131.748 61.029) rotate(180)" fill="#d8f1b3"/>
    </g>
    <g id="Group_153" data-name="Group 153" transform="translate(85.969 120.099)">
      <path id="Path_26-5" data-name="Path 26" d="M0,0C41.646,22.044,101.981-.132,161.193,45.245S113.33,27.061,58.374,27.123,0,0,0,0Z" transform="matrix(-0.995, -0.105, 0.105, -0.995, 177.547, 79.905)" fill="#e9ffc8"/>
      <path id="Union_2-5" data-name="Union 2" d="M109.932,32.755C89.571,24.58,36.142,24.226,7.055,6c-30.007-18.8,43.681,12.568,71.806,13.052A101.756,101.756,0,0,1,106.5,23.531a46.132,46.132,0,0,1,6.616,2.43,35.031,35.031,0,0,1,3.6,1.789,70.179,70.179,0,0,1,8.371,5.379c22.466,16.674,48.541,40.608,45.49,43.161C148.267,59.074,127.439,42.5,109.932,32.755Z" transform="translate(179.591 80.316) rotate(180)" fill="#d8f1b3"/>
    </g>
    <g id="Group_155" data-name="Group 155" transform="matrix(0.819, 0.574, -0.574, 0.819, 96.586, 141.778)">
      <path id="Path_26-6" data-name="Path 26" d="M.088,27.4c30.169-9.829,82.018,1.38,124.921-17.1C126.544,9.644,128.275,8.848,130,8c44.257-21.767-49.279,7.957-91.49,6.445S.088,27.4.088,27.4Z" transform="matrix(0.995, -0.105, 0.105, 0.995, 0, 14.803)" fill="#e9ffc8"/>
      <path id="Union_2-6" data-name="Union 2" d="M5.6,35.284c23.832-9.438,68.922-11.029,85.462-14.866l.372-.085C104.44,15.34,119.479,7.8,135.468,0c2.422,1.282-18.287,13.3-36.13,21.666A66.455,66.455,0,0,1,93.181,24.2a58.391,58.391,0,0,1-20.356,3.618C55.408,28,9.795,38.177,1.842,38.176-.4,38.175.353,37.363,5.6,35.284Z" transform="translate(2.619 3.949)" fill="#d8f1b3"/>
    </g>
    <g id="Group_156" data-name="Group 156" transform="translate(253.429 93.765)">
      <path id="Path_25-8" data-name="Path 25" d="M32.8,6.988C21.721,4.638,15.509,11.012,3.893,3.9S9.333,1.57,20.105,1.57,34.185,6.2,32.8,6.988Z" transform="translate(32.25 14.642) rotate(-167)" fill="#e9ffc8"/>
      <path id="Path_29-8" data-name="Path 29" d="M28.577,4.986C17.5,2.635,11.794,8.5.519,1.241c-2.645-2.93,5.147.246,15.919.246S29.963,4.2,28.577,4.986Z" transform="translate(29.562 14.29) rotate(-167)" fill="#d8f1b3"/>
    </g>
    <g id="Group_157" data-name="Group 157" transform="translate(0 161)">
      <path id="Path_23-5" data-name="Path 23" d="M794.356-763.487c31.856,22.515,75.084-.013,120.388,46.3s-13.556-13.34-50.691-18.051S794.356-763.487,794.356-763.487Z" transform="translate(-823 796)" fill="#d8f1b3"/>
      <path id="Union_1-5" data-name="Union 1" d="M-712.087,824.562h-.251c-14.112-6.84-37.756-.655-60.294-14.995s14.457,3.565,35.582,3.934a75.376,75.376,0,0,1,20.742,3.414,34.335,34.335,0,0,1,5.024,1.876,26.148,26.148,0,0,1,2.632,1.33,52.582,52.582,0,0,1,6.315,4.116c16.874,12.715,39.133,31.1,36.842,33.052C-681.816,844.494-698.361,832.1-712.087,824.562Z" transform="translate(767.191 -768.067)" fill="#e9ffc8"/>
    </g>
    <g id="Group_158" data-name="Group 158" transform="translate(-13 80)">
      <path id="Path_25-9" data-name="Path 25" d="M49.661,8.635C32.889,5.766,24.447,11.408,6.281,4.023S14.08,2.144,30.1,2.779,51.623,7.976,49.661,8.635Z" transform="translate(19.985 81.073) rotate(13)" fill="#d8f1b3"/>
      <path id="Path_29-9" data-name="Path 29" d="M46.221,13.476c-22.228-8.285-31.385-1.754-48-7.782C-5.525,3.017,9.824,1.437,23.1,1.9S48.478,12.49,46.221,13.476Z" transform="translate(24.142 76.265) rotate(13)" fill="#e9ffc8"/>
    </g>
    <g id="Group_159" data-name="Group 159" transform="translate(0 271)">
      <path id="Path_23-6" data-name="Path 23" d="M794.356-763.487c31.856,22.515,75.084-.013,120.388,46.3s-13.556-13.34-50.691-18.051S794.356-763.487,794.356-763.487Z" transform="translate(-823 796)" fill="#d8f1b3"/>
      <path id="Union_1-6" data-name="Union 1" d="M-712.087,824.562h-.251c-14.112-6.84-37.756-.655-60.294-14.995s14.457,3.565,35.582,3.934a75.376,75.376,0,0,1,20.742,3.414,34.335,34.335,0,0,1,5.024,1.876,26.148,26.148,0,0,1,2.632,1.33,52.582,52.582,0,0,1,6.315,4.116c16.874,12.715,39.133,31.1,36.842,33.052C-681.816,844.494-698.361,832.1-712.087,824.562Z" transform="translate(767.191 -768.067)" fill="#e9ffc8"/>
    </g>
    <g id="Group_160" data-name="Group 160" transform="translate(15 103)">
      <path id="Path_26-7" data-name="Path 26" d="M0,0C41.646,22.044,101.981-.132,161.193,45.245s-35.884-23.8-90.84-23.736S0,0,0,0Z" transform="matrix(0.995, 0.105, -0.105, 0.995, 41.953, 161.316)" fill="#d8f1b3"/>
      <path id="Union_2-7" data-name="Union 2" d="M111.863,34.9C91.144,26.192,36.777,25.815,7.179,6.392-23.355-13.644,51.627,19.783,80.247,20.3a99.3,99.3,0,0,1,28.119,4.775,45.6,45.6,0,0,1,6.732,2.589,35.03,35.03,0,0,1,3.658,1.906,71.094,71.094,0,0,1,8.518,5.731c22.86,17.767,49.393,43.269,46.289,45.99C150.871,62.946,129.678,45.288,111.863,34.9Z" transform="translate(39.909 158.905)" fill="#e9ffc8"/>
    </g>
    <g id="Group_161" data-name="Group 161" transform="translate(90 187)">
      <path id="Path_27-6" data-name="Path 27" d="M67.672,19.382c-19.51-.422-37.762,0-60.547-13.94s4.842.51,25.971.51S67.074,16.915,67.672,19.382Z" transform="matrix(0.996, 0.087, -0.087, 0.996, 31.329, 137.601)" fill="#d8f1b3"/>
      <path id="Path_32-6" data-name="Path 32" d="M62.5,19.567C46.717,17.257,30.484,15.4,6.849,7.216S11.967,5.952,33.1,5.952,65.779,20.265,62.5,19.567Z" transform="matrix(0.996, 0.087, -0.087, 0.996, 32.329, 133.601)" fill="#e9ffc8"/>
    </g>
    <g id="Group_162" data-name="Group 162" transform="matrix(-0.819, -0.574, 0.574, -0.819, 316.883, 326.541)">
      <path id="Path_26-8" data-name="Path 26" d="M.088,27.4c30.169-9.829,82.018,1.38,124.921-17.1,1.536-.661,11.1-6.261,12.826-7.11C91.461,19.35,80.722,15.955,38.511,14.444S.088,27.4.088,27.4Z" transform="matrix(0.995, -0.105, 0.105, 0.995, 0, 14.803)" fill="#d8f1b3"/>
      <path id="Union_2-8" data-name="Union 2" d="M6.007,33.574C27.568,20.294,65.947,26.859,83.961,22.98,98.523,18.315,116.313,9.346,135.468,0c2.422,1.282-18.287,13.3-36.13,21.666q-1.977.927-3.845,1.664c-.033,3.159-16.282,9.206-32.792,9.323-15.155.107-46.767,7.222-58.119,7.222C-.8,39.875-1.628,38.276,6.007,33.574Z" transform="translate(2.619 3.949)" fill="#e9ffc8"/>
    </g>
    <g id="Group_163" data-name="Group 163" transform="translate(-34 180)">
      <path id="Path_25-10" data-name="Path 25" d="M49.661,8.635C32.889,5.766,24.447,11.408,6.281,4.023S14.08,2.144,30.1,2.779,51.623,7.976,49.661,8.635Z" transform="translate(19.985 81.073) rotate(13)" fill="#d8f1b3"/>
      <path id="Path_29-10" data-name="Path 29" d="M46.221,13.476c-22.228-8.285-31.385-1.754-48-7.782C-5.525,3.017,9.824,1.437,23.1,1.9S48.478,12.49,46.221,13.476Z" transform="translate(24.142 76.265) rotate(13)" fill="#e9ffc8"/>
    </g>
    <g id="Group_164" data-name="Group 164" transform="translate(250.156 333.057) rotate(1)">
      <path id="Path_27-7" data-name="Path 27" d="M140.365,34.332c-39.632-.725-76.708.006-122.992-23.92s31.2,2.549,51.678,6.263S139.15,30.1,140.365,34.332Z" transform="matrix(-0.996, -0.087, 0.087, -0.996, 140.381, 46.435)" fill="#e9ffc8"/>
      <path id="Path_32-7" data-name="Path 32" d="M138.286,35.468c-32.068-4.02-72.257-14.263-120.268-28.51s41.588,5.568,74.806,13.154S144.939,36.681,138.286,35.468Z" transform="matrix(-0.996, -0.087, 0.087, -0.996, 140.098, 48.422)" fill="#d8f1b3"/>
    </g>
    <g id="Group_165" data-name="Group 165" transform="translate(219.434 286.576)">
      <path id="Path_29-11" data-name="Path 29" d="M48.576,11.656C26.347,3.371,17.191,9.9.572,3.874-3.17,1.2,12.179-.383,25.458.08S50.833,10.669,48.576,11.656Z" transform="translate(47.597 23.234) rotate(-167)" fill="#d8f1b3"/>
      <path id="Path_25-11" data-name="Path 25" d="M49.582,8.424C32.809,5.555,24.368,11.2,6.2,3.812S14,1.933,30.022,2.568,51.544,7.765,49.582,8.424Z" transform="translate(49.02 19.447) rotate(-167)" fill="#e9ffc8"/>
    </g>
  </g>
</svg>
