<svg xmlns="http://www.w3.org/2000/svg" viewBox="0 0 40.625 40.625"><title>status</title><path d="M31,23.864H28.886A1.286,1.286,0,0,1,27.6,22.579V21.452a6.2,6.2,0,0,1-1.551-.88l-1.011.584a1.288,1.288,0,0,1-1.755-.469L22.23,18.859A1.287,1.287,0,0,1,22.7,17.1l.976-.564a6.37,6.37,0,0,1-.015-1.784l-1.011-.583a1.287,1.287,0,0,1-.47-1.754l1.055-1.827a1.286,1.286,0,0,1,1.755-.471l.979.565a6.227,6.227,0,0,1,1.536-.9V8.613A1.286,1.286,0,0,1,28.79,7.329H30.9a1.286,1.286,0,0,1,1.285,1.284V9.741a6.193,6.193,0,0,1,1.55.88l1.012-.584a1.286,1.286,0,0,1,1.755.472l1.054,1.826a1.286,1.286,0,0,1-.469,1.755l-.977.564a6.361,6.361,0,0,1,.015,1.783l1.011.583a1.287,1.287,0,0,1,.47,1.755L36.55,20.6a1.288,1.288,0,0,1-1.755.47l-.978-.565a6.214,6.214,0,0,1-1.536.906v1.165A1.287,1.287,0,0,1,31,23.864Zm-4.844-4.437.253.219a5.281,5.281,0,0,0,1.814,1.029l.323.106v1.8a.35.35,0,0,0,.344.346H31a.346.346,0,0,0,.346-.346V20.756l.315-.11a5.293,5.293,0,0,0,1.8-1.061l.254-.227,1.559.9a.35.35,0,0,0,.471-.126l1.055-1.827a.35.35,0,0,0-.126-.471l-1.58-.912.062-.328a5.392,5.392,0,0,0,.093-1,5.489,5.489,0,0,0-.111-1.091l-.068-.332,1.555-.9a.343.343,0,0,0,.16-.211.34.34,0,0,0-.034-.26l-1.055-1.828a.347.347,0,0,0-.47-.127l-1.583.914-.253-.218a5.274,5.274,0,0,0-1.813-1.028l-.324-.106v-1.8a.35.35,0,0,0-.346-.344H28.79a.349.349,0,0,0-.344.344v1.824l-.315.11a5.309,5.309,0,0,0-1.8,1.06l-.254.227-1.559-.9a.345.345,0,0,0-.471.127L23,12.888a.347.347,0,0,0,.126.47l1.58.912-.062.328a5.4,5.4,0,0,0-.093,1,5.477,5.477,0,0,0,.111,1.091l.067.332-1.555.9a.346.346,0,0,0-.127.472L24.1,20.215a.351.351,0,0,0,.471.126Zm3.742-.15A3.682,3.682,0,1,1,33.575,15.6,3.686,3.686,0,0,1,29.894,19.278Zm0-6.423A2.742,2.742,0,1,0,32.635,15.6,2.746,2.746,0,0,0,29.894,12.854Z"/><path d="M10.9,36.979a1.535,1.535,0,0,1-.681-.16l-2.5-1.233a1.548,1.548,0,0,1-.7-2.071l.7-1.427a8.046,8.046,0,0,1-1.411-2.08l-1.64.107a1.547,1.547,0,0,1-1.643-1.441l-.18-2.78A1.55,1.55,0,0,1,4.3,24.25l1.588-.1a8.268,8.268,0,0,1,1.095-2.263l-.912-1.366A1.549,1.549,0,0,1,6.5,18.376L8.812,16.83a1.548,1.548,0,0,1,2.144.426l.885,1.327a8.065,8.065,0,0,1,2.5-.185l.727-1.472a1.547,1.547,0,0,1,2.07-.7l2.5,1.234a1.549,1.549,0,0,1,.7,2.07l-.705,1.428a8.032,8.032,0,0,1,1.409,2.079l1.642-.106a1.548,1.548,0,0,1,1.641,1.443l.18,2.779A1.549,1.549,0,0,1,23.068,28.8l-1.59.1a8.251,8.251,0,0,1-1.094,2.262l.912,1.366a1.549,1.549,0,0,1-.428,2.144l-2.317,1.546a1.549,1.549,0,0,1-2.144-.428l-.885-1.327a8.056,8.056,0,0,1-2.506.186l-.726,1.47a1.536,1.536,0,0,1-.891.779A1.554,1.554,0,0,1,10.9,36.979ZM6.914,29.027l.13.308a7.123,7.123,0,0,0,1.58,2.328l.243.238-1,2.03a.607.607,0,0,0,.274.812l2.5,1.234a.61.61,0,0,0,.813-.275l1.019-2.062.331.041a7.146,7.146,0,0,0,2.8-.21l.328-.091,1.259,1.887a.608.608,0,0,0,.84.168l2.317-1.546a.608.608,0,0,0,.168-.84l-1.277-1.914.2-.266a7.275,7.275,0,0,0,.708-1.151,7.353,7.353,0,0,0,.517-1.384L20.749,28l2.258-.147a.6.6,0,0,0,.417-.207.6.6,0,0,0,.149-.436l-.18-2.78a.608.608,0,0,0-.642-.566l-2.3.149-.13-.308a7.113,7.113,0,0,0-1.578-2.326l-.243-.238,1-2.032a.609.609,0,0,0-.276-.811l-2.5-1.234a.609.609,0,0,0-.811.275L14.9,19.407l-.331-.041a7.165,7.165,0,0,0-2.8.208l-.328.091-1.258-1.886a.607.607,0,0,0-.84-.167L7.017,19.158A.609.609,0,0,0,6.85,20l1.277,1.914-.2.266a7.274,7.274,0,0,0-.709,1.153A7.386,7.386,0,0,0,6.7,24.715l-.086.327-2.257.147a.609.609,0,0,0-.567.644l.18,2.779a.607.607,0,0,0,.644.565Zm6.763,2.208a4.691,4.691,0,0,1-2.082-.49h0a4.68,4.68,0,1,1,2.082.49Zm.01-8.483A3.77,3.77,0,0,0,12.012,29.9h0a3.771,3.771,0,1,0,1.676-7.151Z"/><path d="M17.292,14.445a.93.93,0,0,1-.813-.476l-.355-.634a4.515,4.515,0,0,1-.61.035,4.412,4.412,0,0,1-.54-.041l-.386.648a.931.931,0,0,1-1.273.323l-1.231-.732a.931.931,0,0,1-.324-1.274l.372-.626a4.284,4.284,0,0,1-.571-1l-.754-.01a.931.931,0,0,1-.916-.941L9.91,8.287a.931.931,0,0,1,.929-.917h.012l.727.01a4.264,4.264,0,0,1,.581-.992l-.369-.659a.93.93,0,0,1,.358-1.264l1.249-.7a.93.93,0,0,1,1.265.356l.355.635a4.661,4.661,0,0,1,.61-.035,4.387,4.387,0,0,1,.54.04l.386-.648a.931.931,0,0,1,1.273-.323l1.231.733A.931.931,0,0,1,19.381,5.8l-.372.626a4.274,4.274,0,0,1,.571,1l.753.01a.931.931,0,0,1,.917.942L21.231,9.8a.931.931,0,0,1-.93.917h-.012l-.726-.01a4.269,4.269,0,0,1-.581.993l.369.658a.932.932,0,0,1-.356,1.265l-1.25.7A.924.924,0,0,1,17.292,14.445ZM16.52,12.5l.616,1.1a.18.18,0,0,0,.242.068l1.249-.7a.18.18,0,0,0,.068-.241l-.626-1.117.178-.2a3.528,3.528,0,0,0,.7-1.2l.088-.257,1.261.017a.175.175,0,0,0,.18-.175L20.5,8.362a.179.179,0,0,0-.175-.18l-1.278-.017-.085-.253A3.538,3.538,0,0,0,18.267,6.7L18.088,6.5l.646-1.086a.18.18,0,0,0-.062-.243l-1.231-.732A.18.18,0,0,0,17.2,4.5l-.654,1.1-.261-.053a3.6,3.6,0,0,0-.666-.071,3.536,3.536,0,0,0-.73.064l-.266.051-.616-1.1A.177.177,0,0,0,13.9,4.4a.174.174,0,0,0-.133.015l-1.25.7a.178.178,0,0,0-.069.24l.626,1.118-.177.2a3.522,3.522,0,0,0-.7,1.2l-.088.258-1.263-.017h0a.18.18,0,0,0-.178.175l-.019,1.432a.179.179,0,0,0,.174.179l1.279.017.085.253a3.552,3.552,0,0,0,.692,1.21l.179.205-.646,1.085a.178.178,0,0,0-.019.134.175.175,0,0,0,.08.109l1.231.733a.179.179,0,0,0,.242-.062l.654-1.1.261.053a3.609,3.609,0,0,0,.667.071,3.571,3.571,0,0,0,.73-.064Zm-.949-1.372h-.028a2.085,2.085,0,1,1,.028,0Zm0-3.418a1.333,1.333,0,0,0-.017,2.666h.018a1.333,1.333,0,0,0,.017-2.666Z"/></svg>