<svg xmlns="http://www.w3.org/2000/svg" xmlns:xlink="http://www.w3.org/1999/xlink" width="320" height="70" viewBox="0 0 320 70">
  <defs>
    <linearGradient id="linear-gradient" y1="0.5" x2="1" y2="0.5" gradientUnits="objectBoundingBox">
      <stop offset="0" stop-color="#ea5b0c"/>
      <stop offset="0.326" stop-color="#e82b49"/>
      <stop offset="0.674" stop-color="#312783"/>
      <stop offset="1" stop-color="#0f7bc6"/>
    </linearGradient>
    <linearGradient id="linear-gradient-2" y1="0.5" x2="1" y2="0.5" gradientUnits="objectBoundingBox">
      <stop offset="0" stop-color="#ea5b0c"/>
      <stop offset="1" stop-color="#e82b49"/>
      <stop offset="1" stop-color="#e6007e"/>
    </linearGradient>
    <linearGradient id="linear-gradient-3" y1="0.5" x2="1" y2="0.5" gradientUnits="objectBoundingBox">
      <stop offset="0" stop-color="#312783"/>
      <stop offset="1" stop-color="#0f7bc6"/>
      <stop offset="1" stop-color="#009fe3"/>
    </linearGradient>
  </defs>
  <g id="Group_771" data-name="Group 771" transform="translate(0 -293)">
    <rect id="Rectangle_18" data-name="Rectangle 18" width="320" height="70" transform="translate(0 293)" fill="url(#linear-gradient)"/>
    <g id="logo" transform="translate(118 304.557)">
      <path id="Path_33" data-name="Path 33" d="M167.34,48.673l42.151-24.335L167.34,0Z" transform="translate(-125.189)" fill="#fff"/>
      <path id="Path_34" data-name="Path 34" d="M0,120.955l21.076-12.169L0,96.62Z" transform="translate(0 -72.282)" fill="url(#linear-gradient-2)"/>
      <path id="Path_35" data-name="Path 35" d="M83.67,120.955l21.076-12.169L83.67,96.62Z" transform="translate(-62.594 -72.282)" fill="url(#linear-gradient-3)"/>
      <path id="Path_36" data-name="Path 36" d="M184.33,59.857a2.106,2.106,0,0,0-1.806.877,4.108,4.108,0,0,0-.64,2.446q0,3.259,2.446,3.259a7.741,7.741,0,0,0,2.489-.5v1.73a6.922,6.922,0,0,1-2.68.5,4.093,4.093,0,0,1-3.254-1.29,5.459,5.459,0,0,1-1.128-3.705,6.023,6.023,0,0,1,.564-2.675,4.005,4.005,0,0,1,1.589-1.763,4.725,4.725,0,0,1,2.431-.61,6.567,6.567,0,0,1,2.856.688l-.668,1.68a10.783,10.783,0,0,0-1.1-.453A3.3,3.3,0,0,0,184.33,59.857Z" transform="translate(-135.189 -44.197)" fill="#1d1d1b"/>
      <path id="Path_37" data-name="Path 37" d="M222.41,63.15a5.29,5.29,0,0,1-1.2,3.72,4.5,4.5,0,0,1-3.446,1.317,4.448,4.448,0,0,1-3.441-1.3,5.328,5.328,0,0,1-1.2-3.738,5.24,5.24,0,0,1,1.2-3.718,4.493,4.493,0,0,1,3.451-1.282,4.439,4.439,0,0,1,3.438,1.292A5.31,5.31,0,0,1,222.41,63.15Zm-7.116,0a4.081,4.081,0,0,0,.62,2.461,2.161,2.161,0,0,0,1.854.826q2.474,0,2.474-3.275t-2.466-3.3a2.184,2.184,0,0,0-1.859.829,4.064,4.064,0,0,0-.627,2.461Z" transform="translate(-160.15 -44.215)" fill="#1d1d1b"/>
      <path id="Path_38" data-name="Path 38" d="M184.33,102.887a2.106,2.106,0,0,0-1.806.877,4.108,4.108,0,0,0-.64,2.446q0,3.259,2.446,3.259a7.73,7.73,0,0,0,2.489-.5v1.73a6.922,6.922,0,0,1-2.68.5,4.089,4.089,0,0,1-3.254-1.292,5.465,5.465,0,0,1-1.128-3.705,6.023,6.023,0,0,1,.554-2.662,4.005,4.005,0,0,1,1.589-1.763,4.726,4.726,0,0,1,2.431-.61,6.567,6.567,0,0,1,2.856.688l-.668,1.68a10.785,10.785,0,0,0-1.1-.453A3.3,3.3,0,0,0,184.33,102.887Z" transform="translate(-135.188 -76.395)" fill="#1d1d1b"/>
      <path id="Path_39" data-name="Path 39" d="M217.72,101.72h3.023a5.917,5.917,0,0,1,3.023.589,2.041,2.041,0,0,1,.937,1.877,2.363,2.363,0,0,1-.411,1.436,1.642,1.642,0,0,1-1.091.673v.065a2.161,2.161,0,0,1,1.338.776,2.519,2.519,0,0,1,.411,1.511,2.486,2.486,0,0,1-.965,2.081,4.135,4.135,0,0,1-2.617.756H217.72Zm2.066,3.861h1.2a2.191,2.191,0,0,0,1.217-.252.965.965,0,0,0,.378-.859.859.859,0,0,0-.411-.8,2.62,2.62,0,0,0-1.3-.252h-1.088Zm0,1.64v2.542h1.348a2,2,0,0,0,1.259-.327,1.209,1.209,0,0,0,.406-1.008q0-1.212-1.733-1.214Z" transform="translate(-163.591 -76.811)" fill="#1d1d1b"/>
      <path id="Path_40" data-name="Path 40" d="M251.571,87.937h3.078v1.033h-3.078v3.189h-1.04V88.969H247.46V87.937h3.071V84.73h1.04Z" transform="translate(-185.84 -64.1)" fill="#1d1d1b"/>
    </g>
  </g>
</svg>
