<svg xmlns="http://www.w3.org/2000/svg" xmlns:xlink="http://www.w3.org/1999/xlink" width="320" height="70" viewBox="0 0 320 70">
  <defs>
    <clipPath id="clip-path">
      <rect id="Rectangle_1830" data-name="Rectangle 1830" width="320" height="70" transform="translate(0 416)" fill="#fff" stroke="#707070" stroke-width="1"/>
    </clipPath>
  </defs>
  <g id="Mask_Group_256" data-name="Mask Group 256" transform="translate(0 -416)" clip-path="url(#clip-path)">
    <g id="Group_514" data-name="Group 514">
      <rect id="Rectangle_1668" data-name="Rectangle 1668" width="7" height="44" transform="translate(286 442)" fill="#81d269"/>
      <path id="Path_322" data-name="Path 322" d="M21.986,44.392c1.282-1.94-5.706-5.04-10.013-13.86A38.309,38.309,0,0,1,8.439,7.512c3.534-21.794-12.664,9.424-7.363,22.972S20.7,46.332,21.986,44.392Z" transform="matrix(0.309, 0.951, -0.951, 0.309, 286.809, 434.444)" fill="#1a6108"/>
      <path id="Path_323" data-name="Path 323" d="M21.986,44.392c.583-3.5-9.031-5.974-12.247-13.278-2.845-5.82-2.792-14.405-1.3-23.6,3.534-21.794-12.664,9.424-7.363,22.972S21.4,47.893,21.986,44.392Z" transform="translate(292.662 434.59) rotate(109)" fill="#1a6108"/>
      <path id="Path_324" data-name="Path 324" d="M.7,0S-4.585,22.132,13.887,28.754s13.941-4.531,3.137-9.062S.7,0,.7,0Z" transform="translate(290.43 440.871) rotate(68)" fill="#1a6108"/>
      <path id="Path_325" data-name="Path 325" d="M21.986.6c1.282,1.94-5.706,5.04-10.013,13.86a38.309,38.309,0,0,0-3.534,23.02c3.534,21.794-12.664-9.424-7.363-22.972S20.7-1.341,21.986.6Z" transform="matrix(-0.309, 0.951, -0.951, -0.309, 333.685, 448.347)" fill="#1a6108"/>
      <path id="Path_326" data-name="Path 326" d="M21.986,1.219c.583,3.5-9.031,5.974-12.247,13.278-2.845,5.82-2.792,14.405-1.3,23.6,3.534,21.794-12.664-9.424-7.363-22.972S21.4-2.282,21.986,1.219Z" transform="translate(328.168 419.741) rotate(71)" fill="#1a6108"/>
      <path id="Path_327" data-name="Path 327" d="M.7,30.8S-4.585,8.672,13.887,2.049s13.941,4.531,3.137,9.062S.7,30.8.7,30.8Z" transform="translate(315.835 452.41) rotate(112)" fill="#1a6108"/>
      <path id="Intersection_1" data-name="Intersection 1" d="M-768.834,841.24c-.765-4-2.683-18.773,8.9-26h15.97c-1.267,2.36-4.483,5.2-8.674,7.043-9.051,3.983-14.2,15.47-15.592,18.958Z" transform="translate(1056.969 -399.24)" fill="#1a6108"/>
      <path id="Path_330" data-name="Path 330" d="M.777,0s-1.87,24.383,14.632,27.716,11.194-1.419-.119-6.83S.777,0,.777,0Z" transform="matrix(-0.978, 0.208, -0.208, -0.978, 289.838, 441.719)" fill="#1a6108"/>
    </g>
    <g id="Group_515" data-name="Group 515" transform="translate(-19.63 416)">
      <rect id="Rectangle_1668-2" data-name="Rectangle 1668" width="7" height="44" transform="translate(42.335 26)" fill="#81d269"/>
      <path id="Path_322-2" data-name="Path 322" d="M21.986.6c1.282,1.94-5.706,5.04-10.013,13.86a38.309,38.309,0,0,0-3.534,23.02c3.534,21.794-12.664-9.424-7.363-22.972S20.7-1.341,21.986.6Z" transform="matrix(-0.309, 0.951, -0.951, -0.309, 91.314, 32.347)" fill="#1a6108"/>
      <path id="Path_323-2" data-name="Path 323" d="M21.986,1.219c.583,3.5-9.031,5.974-12.247,13.278-2.845,5.82-2.792,14.405-1.3,23.6,3.534,21.794-12.664-9.424-7.363-22.972S21.4-2.282,21.986,1.219Z" transform="translate(85.798 3.741) rotate(71)" fill="#1a6108"/>
      <path id="Path_324-2" data-name="Path 324" d="M.7,30.8S-4.585,8.672,13.887,2.049s13.941,4.531,3.137,9.062S.7,30.8.7,30.8Z" transform="translate(73.465 36.41) rotate(112)" fill="#1a6108"/>
      <path id="Path_325-2" data-name="Path 325" d="M21.986,44.392c1.282-1.94-5.706-5.04-10.013-13.86A38.309,38.309,0,0,1,8.439,7.512c3.534-21.794-12.664,9.424-7.363,22.972S20.7,46.332,21.986,44.392Z" transform="matrix(0.309, 0.951, -0.951, 0.309, 44.439, 18.444)" fill="#1a6108"/>
      <path id="Path_326-2" data-name="Path 326" d="M21.986,44.392c.583-3.5-9.031-5.974-12.247-13.278-2.845-5.82-2.792-14.405-1.3-23.6,3.534-21.794-12.664,9.424-7.363,22.972S21.4,47.893,21.986,44.392Z" transform="translate(50.292 18.59) rotate(109)" fill="#1a6108"/>
      <path id="Path_327-2" data-name="Path 327" d="M.7,0S-4.585,22.132,13.887,28.754s13.941-4.531,3.137-9.062S.7,0,.7,0Z" transform="translate(48.059 24.871) rotate(68)" fill="#1a6108"/>
      <path id="Intersection_1-2" data-name="Intersection 1" d="M12.594,26C3.044,17.2,4.233.754,4.233.754s7.085,14.432,13.8,20.71C19.6,22.932,21.316,24.516,22.82,26Z" transform="translate(50.885 26) rotate(180)" fill="#1a6108"/>
      <path id="Intersection_2" data-name="Intersection 2" d="M-.486,26C-.349,24.79,2.28,3.6,18.436.032L18.583,0h8.6c-.567,1.686-6.027,5.149-10.491,8.056C9.282,12.884.218,25.089-.453,26Z" transform="translate(46.066 0)" fill="#1a6108"/>
    </g>
  </g>
</svg>
