<svg xmlns="http://www.w3.org/2000/svg" viewBox="0 0 40.625 40.625"><title>status</title><path d="M20.925,22.282a3.335,3.335,0,1,1,3.335-3.335A3.339,3.339,0,0,1,20.925,22.282Zm0-5.819a2.484,2.484,0,1,0,2.484,2.484A2.487,2.487,0,0,0,20.925,16.463Z"/><path d="M38.946,32.1a.425.425,0,0,1-.851,0,2.4,2.4,0,0,0-1-1.872,4.1,4.1,0,0,0-2.518-.825h-4.79c-1.914,0-3.531,1.234-3.531,2.7a.425.425,0,0,1-.851,0c0-1.957,1.965-3.548,4.382-3.548h4.79a4.942,4.942,0,0,1,3.046,1A3.241,3.241,0,0,1,38.946,32.1Z"/><path d="M16.45,32.1a.425.425,0,0,1-.851,0c0-1.463-1.617-2.7-3.531-2.7H7.278a4.1,4.1,0,0,0-2.518.825,2.4,2.4,0,0,0-1,1.872.425.425,0,0,1-.851,0,3.241,3.241,0,0,1,1.327-2.544,4.942,4.942,0,0,1,3.046-1h4.79C14.484,28.553,16.45,30.144,16.45,32.1Z"/><path d="M29.672,26.494a3.332,3.332,0,1,0,2.5-5.53.823.823,0,0,0-.145.009,3.332,3.332,0,1,0-3.31,3.752.924.924,0,0,0,.153-.009,3.138,3.138,0,0,0,.264.927H27.476a3.666,3.666,0,0,0-1.106-1.438,4.932,4.932,0,0,0-3.046-1.012h-4.8a4.932,4.932,0,0,0-3.046,1.012,3.666,3.666,0,0,0-1.106,1.438H12.715a3.135,3.135,0,0,0,.264-.927.925.925,0,0,0,.153.009,3.331,3.331,0,1,0-3.3-3.752.924.924,0,0,0-.153-.009,3.335,3.335,0,1,0,2.5,5.53h3.344c1.914,0,3.531,1.234,3.531,2.7a.425.425,0,1,0,.851,0c0-1.957-1.965-3.548-4.382-3.548h-.2a3.074,3.074,0,0,1,.689-.774,4.138,4.138,0,0,1,2.518-.825h4.8a4.12,4.12,0,0,1,2.519.825,3.077,3.077,0,0,1,.689.774h-.2c-2.416,0-4.382,1.591-4.382,3.548a.425.425,0,1,0,.851,0c0-1.463,1.617-2.7,3.531-2.7Zm2.5-4.68a2.484,2.484,0,0,1,0,4.969,2.457,2.457,0,0,1-1.931-.936.333.333,0,0,0-.068-.085,2.485,2.485,0,0,1,2-3.948ZM28.88,23.865a1.029,1.029,0,0,1-.162.009,2.48,2.48,0,1,1,2.467-2.757A3.316,3.316,0,0,0,28.88,23.865Zm-17.2,1.9a.332.332,0,0,0-.068.085,2.457,2.457,0,0,1-1.931.936,2.484,2.484,0,1,1,2-1.021Zm-1.012-4.645a2.479,2.479,0,1,1,2.467,2.757,1.03,1.03,0,0,1-.162-.009A3.316,3.316,0,0,0,10.664,21.117Z"/><path d="M11.983,9.877H3.041a1.367,1.367,0,0,0-1.361,1.37v5.377a1.373,1.373,0,0,0,1.361,1.37l5.4-.009.51.842a.69.69,0,0,0,1.174.008l.519-.842h1.336a1.373,1.373,0,0,0,1.361-1.37V11.247A1.367,1.367,0,0,0,11.983,9.877ZM8.665,17.194H3.041a.568.568,0,0,1-.562-.57V11.247a.576.576,0,0,1,.562-.579h8.942a.576.576,0,0,1,.561.579v5.377a.568.568,0,0,1-.561.57h-1.54a.414.414,0,0,0-.349.2l-.545.876L9.022,17.4A.418.418,0,0,0,8.665,17.194Z"/><path d="M35.355,8.1H26.413a1.36,1.36,0,0,0-1.353,1.37v5.369a1.36,1.36,0,0,0,1.353,1.37l1.319-.009.536.859a.69.69,0,0,0,1.174-.009l.493-.842h5.42a1.36,1.36,0,0,0,1.353-1.37V9.469A1.36,1.36,0,0,0,35.355,8.1Zm-7.4,7.317h-1.54a.576.576,0,0,1-.561-.579V9.469a.57.57,0,0,1,.561-.579h8.942a.57.57,0,0,1,.561.579v5.369a.576.576,0,0,1-.561.579H29.731a.4.4,0,0,0-.357.2l-.528.876L28.3,15.6A.417.417,0,0,0,27.953,15.416Z"/></svg>