<svg xmlns="http://www.w3.org/2000/svg" viewBox="0 0 40.625 40.625"><title>status</title><path d="M33.94,9.25l-.81-.467a5.176,5.176,0,0,0-.012-1.429L33.9,6.9a1.029,1.029,0,0,0,.377-1.407l-.844-1.465a1.034,1.034,0,0,0-1.408-.378l-.811.469a4.958,4.958,0,0,0-1.244-.706v-.9a1.03,1.03,0,0,0-1.03-1.03H27.249a1.031,1.031,0,0,0-1.031,1.03v.935a4.991,4.991,0,0,0-1.23.727L24.2,3.717A1.032,1.032,0,0,0,22.8,4.1l-.647,1.12a12,12,0,0,0-1.687-.158,12.434,12.434,0,0,0-7.009,22.9,1.868,1.868,0,0,1,.867,1.576v3.777a5.386,5.386,0,0,0,.047.719,5.748,5.748,0,0,0,.347,1.375,5.882,5.882,0,0,0,5.339,3.745l.112,0a5.744,5.744,0,0,0,4.044-1.672A6.045,6.045,0,0,0,26,33.487c0-.1.008-.2.008-.3V29.53a1.829,1.829,0,0,1,.027-.315,1.869,1.869,0,0,1,.84-1.26A12.39,12.39,0,0,0,32.6,17.489v-.027a12.253,12.253,0,0,0-1.256-5.378l.724.418a1.034,1.034,0,0,0,1.408-.378l.846-1.464A1.035,1.035,0,0,0,33.94,9.25Zm-8.7,24.367L15.474,35.27a5.054,5.054,0,0,1-.365-1.37l10.147-1.717Zm.018-2.165L15.073,33.177V31.745l1.933-.327,1.266-.214.746-.127,2.325-.394.767-.13,3.145-.532ZM18.143,20.565a18.145,18.145,0,0,0,4.045,0L21.4,30l-2.438.413Zm13.7-3.1a11.639,11.639,0,0,1-5.373,9.856,2.624,2.624,0,0,0-1.208,2.026l-3.094.525.784-9.406q.807-.127,1.6-.326a2.457,2.457,0,0,0,1.325-.808A.938.938,0,0,0,26.047,19,1.892,1.892,0,0,0,25.5,17.02a1.775,1.775,0,0,0-1.9-.333,1.881,1.881,0,0,0-.932.841,2.555,2.555,0,0,0-.314,1.037l-.1,1.233a17.408,17.408,0,0,1-4.173,0l-.1-1.233a2.555,2.555,0,0,0-.314-1.037,1.881,1.881,0,0,0-.932-.841,1.775,1.775,0,0,0-1.9.333A1.892,1.892,0,0,0,14.281,19a.951.951,0,0,0,.167.335,2.468,2.468,0,0,0,1.325.808q.794.2,1.6.326l.84,10.074-3.144.532V29.528a2.62,2.62,0,0,0-1.214-2.21,11.68,11.68,0,0,1,6.3-21.51c.093,0,.187,0,.28,0a11.2,11.2,0,0,1,1.378.116l0,.012a1.028,1.028,0,0,0,.505,1.027l.811.469a5.313,5.313,0,0,0-.044.675,5.079,5.079,0,0,0,.056.755l-.784.454a1.033,1.033,0,0,0-.378,1.407l.847,1.467a1.031,1.031,0,0,0,1.407.374l.811-.467a5.051,5.051,0,0,0,1.244.707v.9a1.033,1.033,0,0,0,1.031,1.031h1.692a1.031,1.031,0,0,0,1.03-1.031v-.935a4.921,4.921,0,0,0,.638-.317A11.5,11.5,0,0,1,31.843,17.464Zm-8.826,2.225.087-1.06a1.833,1.833,0,0,1,.222-.736,1.153,1.153,0,0,1,.564-.511,1.021,1.021,0,0,1,.4-.083,1.042,1.042,0,0,1,.7.28,1.151,1.151,0,0,1,.336,1.2.494.494,0,0,1-.029.075,1.714,1.714,0,0,1-.926.556C23.925,19.52,23.471,19.614,23.017,19.689Zm-5.705,0q-.683-.113-1.355-.282a1.717,1.717,0,0,1-.923-.55A.5.5,0,0,1,15,18.775a1.151,1.151,0,0,1,.336-1.2,1.042,1.042,0,0,1,.7-.28,1.02,1.02,0,0,1,.4.083,1.146,1.146,0,0,1,.564.511,1.847,1.847,0,0,1,.222.736Zm16.352-9.406-.844,1.464a.281.281,0,0,1-.378.1l-1.015-.585-.241-.127-.2.176-.092.08a4.2,4.2,0,0,1-.568.4,4.136,4.136,0,0,1-.776.363l-.252.089V13.71a.28.28,0,0,1-.276.277H27.326a.281.281,0,0,1-.277-.277V12.268l-.258-.084a4.252,4.252,0,0,1-1.455-.826l-.2-.175-1.269.731a.276.276,0,0,1-.377-.1l-.846-1.465a.277.277,0,0,1,.1-.378l1.247-.719-.054-.265a4.394,4.394,0,0,1-.087-.876,4.291,4.291,0,0,1,.074-.8l.048-.262L22.7,6.313a.275.275,0,0,1-.134-.277.247.247,0,0,1,.035-.1l.846-1.465a.272.272,0,0,1,.167-.128.268.268,0,0,1,.21.027l1.251.721.2-.182a4.266,4.266,0,0,1,1.438-.849l.253-.087V2.509a.28.28,0,0,1,.277-.276h1.692a.28.28,0,0,1,.276.276V3.952l.259.086a4.207,4.207,0,0,1,1.453.823l.2.175L32.4,4.3a.275.275,0,0,1,.21-.026.279.279,0,0,1,.169.128l.846,1.467a.275.275,0,0,1-.1.375l-1.247.721.054.265a4.359,4.359,0,0,1,.089.876,4.275,4.275,0,0,1-.074.8l-.048.262,1.265.731A.281.281,0,0,1,33.664,10.283Z"/><path d="M28.133,5.156a2.953,2.953,0,1,0,1.432,5.535,2.858,2.858,0,0,0,.686-.525,2.952,2.952,0,0,0-2.118-5.01ZM29.71,9.642a2.127,2.127,0,0,1-.508.389h0a2.2,2.2,0,0,1-3.133-2.675,2.225,2.225,0,0,1,.3-.564,2.2,2.2,0,1,1,3.34,2.848ZM28.133,5.156a2.953,2.953,0,1,0,1.432,5.535,2.858,2.858,0,0,0,.686-.525,2.952,2.952,0,0,0-2.118-5.01ZM29.71,9.642a2.127,2.127,0,0,1-.508.389h0a2.2,2.2,0,0,1-3.133-2.675,2.225,2.225,0,0,1,.3-.564,2.2,2.2,0,1,1,3.34,2.848ZM28.133,5.156a2.953,2.953,0,1,0,1.432,5.535,2.858,2.858,0,0,0,.686-.525,2.952,2.952,0,0,0-2.118-5.01ZM29.71,9.642a2.127,2.127,0,0,1-.508.389h0a2.2,2.2,0,0,1-3.133-2.675,2.225,2.225,0,0,1,.3-.564,2.2,2.2,0,1,1,3.34,2.848Z"/></svg>