<svg xmlns="http://www.w3.org/2000/svg" width="297.464" height="64.098" viewBox="0 0 297.464 64.098">
  <g id="stars" transform="translate(-16.268 -261.268)">
    <path id="Subtraction_1" data-name="Subtraction 1" d="M-767.6,832a12.275,12.275,0,0,1-8.771-3.661A12.468,12.468,0,0,1-780,819.5a12.467,12.467,0,0,1,3.633-8.839A12.276,12.276,0,0,1-767.6,807a12.5,12.5,0,0,1,1.438.083,12.544,12.544,0,0,0-5.336,10.274,12.455,12.455,0,0,0,10.966,12.417A12.263,12.263,0,0,1-767.6,832Z" transform="translate(821 -540)" fill="#fffcae"/>
    <circle id="Ellipse_20" data-name="Ellipse 20" cx="2" cy="2" r="2" transform="translate(279.268 267.268) rotate(-30)" fill="#f6f3a1"/>
    <circle id="Ellipse_21" data-name="Ellipse 21" cx="2" cy="2" r="2" transform="translate(210.268 320.268) rotate(-30)" fill="#f6f3a1"/>
    <circle id="Ellipse_22" data-name="Ellipse 22" cx="1" cy="1" r="1" transform="translate(246.634 275.634) rotate(-30)" fill="#f6f3a1"/>
    <circle id="Ellipse_23" data-name="Ellipse 23" cx="1" cy="1" r="1" transform="translate(263.634 299.634) rotate(-30)" fill="#f6f3a1"/>
    <circle id="Ellipse_24" data-name="Ellipse 24" cx="2" cy="2" r="2" transform="translate(19.732 279.732) rotate(-150)" fill="#f6f3a1"/>
    <circle id="Ellipse_25" data-name="Ellipse 25" cx="1" cy="1" r="1" transform="translate(98.366 273.366) rotate(-150)" fill="#f6f3a1"/>
    <circle id="Ellipse_26" data-name="Ellipse 26" cx="1" cy="1" r="1" transform="translate(69.366 325.366) rotate(-150)" fill="#f6f3a1"/>
    <circle id="Ellipse_27" data-name="Ellipse 27" cx="1" cy="1" r="1" transform="translate(181.634 270.634) rotate(-30)" fill="#f6f3a1"/>
    <circle id="Ellipse_28" data-name="Ellipse 28" cx="1" cy="1" r="1" transform="translate(129.634 316.634) rotate(-30)" fill="#f6f3a1"/>
    <circle id="Ellipse_29" data-name="Ellipse 29" cx="2" cy="2" r="2" transform="translate(308.268 319.268) rotate(-30)" fill="#f6f3a1"/>
    <circle id="Ellipse_30" data-name="Ellipse 30" cx="1" cy="1" r="1" transform="translate(305.634 282.634) rotate(-30)" fill="#f6f3a1"/>
    <circle id="Ellipse_31" data-name="Ellipse 31" cx="2" cy="2" r="2" transform="translate(144.268 278.268) rotate(-30)" fill="#f6f3a1"/>
    <circle id="Ellipse_32" data-name="Ellipse 32" cx="2" cy="2" r="2" transform="translate(76.268 313.268) rotate(-30)" fill="#f6f3a1"/>
    <circle id="Ellipse_33" data-name="Ellipse 33" cx="2" cy="2" r="2" transform="translate(59.268 319.268) rotate(-30)" fill="#f6f3a1"/>
    <circle id="Ellipse_34" data-name="Ellipse 34" cx="1" cy="1" r="1" transform="translate(23.366 317.366) rotate(-150)" fill="#f6f3a1"/>
    <circle id="Ellipse_35" data-name="Ellipse 35" cx="2" cy="2" r="2" transform="translate(247.268 280.268) rotate(-30)" fill="#f6f3a1"/>
    <circle id="Ellipse_36" data-name="Ellipse 36" cx="2" cy="2" r="2" transform="translate(214.268 263.268) rotate(-30)" fill="#f6f3a1"/>
    <circle id="Ellipse_37" data-name="Ellipse 37" cx="2" cy="2" r="2" transform="translate(173.268 311.268) rotate(-30)" fill="#f6f3a1"/>
  </g>
</svg>
